mtllib material.mtl
usemtl material_0
v 0.37500000 1.35000002 -1.30000007
v 0.37500000 1.35000002 -1.40000010
v -0.37500000 1.35000002 -1.40000010
v -0.37500000 1.35000002 -1.30000007
v 0.37500000 0.75000000 -1.40000010
v 0.37500000 1.35000002 -1.40000010
v 0.37500000 1.35000002 -1.30000007
v 0.37500000 0.75000000 -1.30000007
v -0.37500000 0.75000000 -1.40000010
v -0.37500000 1.35000002 -1.40000010
v 0.37500000 1.35000002 -1.40000010
v 0.37500000 0.75000000 -1.40000010
v -0.37500000 0.75000000 -1.30000007
v -0.37500000 1.35000002 -1.30000007
v -0.37500000 1.35000002 -1.40000010
v -0.37500000 0.75000000 -1.40000010
v 0.37500000 0.75000000 -1.30000007
v 0.37500000 1.35000002 -1.30000007
v -0.37500000 1.35000002 -1.30000007
v -0.37500000 0.75000000 -1.30000007
v 0.37500000 0.75000000 -1.40000010
v 0.37500000 0.75000000 -1.30000007
v -0.37500000 0.75000000 -1.30000007
v -0.37500000 0.75000000 -1.40000010
v 0.37500000 -1.35000002 -1.40000010
v 0.37500000 -1.35000002 -1.30000007
v -0.37500000 -1.35000002 -1.30000007
v -0.37500000 -1.35000002 -1.40000010
v 0.37500000 -1.35000002 -1.30000007
v 0.37500000 -1.35000002 -1.40000010
v 0.37500000 -0.75000000 -1.40000010
v 0.37500000 -0.75000000 -1.30000007
v -0.37500000 -0.75000000 -1.30000007
v -0.37500000 -1.35000002 -1.30000007
v 0.37500000 -1.35000002 -1.30000007
v 0.37500000 -0.75000000 -1.30000007
v -0.37500000 -0.75000000 -1.40000010
v -0.37500000 -1.35000002 -1.40000010
v -0.37500000 -1.35000002 -1.30000007
v -0.37500000 -0.75000000 -1.30000007
v 0.37500000 -0.75000000 -1.40000010
v 0.37500000 -1.35000002 -1.40000010
v -0.37500000 -1.35000002 -1.40000010
v -0.37500000 -0.75000000 -1.40000010
v 0.37500000 -0.75000000 -1.30000007
v 0.37500000 -0.75000000 -1.40000010
v -0.37500000 -0.75000000 -1.40000010
v -0.37500000 -0.75000000 -1.30000007
vn 0.00000000 1.00000000 0.00000000
vn 0.00000000 1.00000000 0.00000000
vn 0.00000000 1.00000000 0.00000000
vn 0.00000000 1.00000000 0.00000000
vn 1.00000000 0.00000000 0.00000000
vn 1.00000000 0.00000000 0.00000000
vn 1.00000000 0.00000000 0.00000000
vn 1.00000000 0.00000000 0.00000000
vn 0.00000000 0.00000000 -1.00000000
vn 0.00000000 0.00000000 -1.00000000
vn 0.00000000 0.00000000 -1.00000000
vn 0.00000000 0.00000000 -1.00000000
vn -1.00000000 0.00000000 0.00000000
vn -1.00000000 0.00000000 0.00000000
vn -1.00000000 0.00000000 0.00000000
vn -1.00000000 0.00000000 0.00000000
vn 0.00000000 0.00000000 1.00000000
vn 0.00000000 0.00000000 1.00000000
vn 0.00000000 0.00000000 1.00000000
vn 0.00000000 0.00000000 1.00000000
vn 0.00000000 -1.00000000 0.00000000
vn 0.00000000 -1.00000000 0.00000000
vn 0.00000000 -1.00000000 0.00000000
vn 0.00000000 -1.00000000 0.00000000
vn 0.00000000 -1.00000000 0.00000000
vn 0.00000000 -1.00000000 0.00000000
vn 0.00000000 -1.00000000 0.00000000
vn 0.00000000 -1.00000000 0.00000000
vn 1.00000000 0.00000000 0.00000000
vn 1.00000000 0.00000000 0.00000000
vn 1.00000000 0.00000000 0.00000000
vn 1.00000000 0.00000000 0.00000000
vn 0.00000000 0.00000000 1.00000000
vn 0.00000000 0.00000000 1.00000000
vn 0.00000000 0.00000000 1.00000000
vn 0.00000000 0.00000000 1.00000000
vn -1.00000000 0.00000000 0.00000000
vn -1.00000000 0.00000000 0.00000000
vn -1.00000000 0.00000000 0.00000000
vn -1.00000000 0.00000000 0.00000000
vn 0.00000000 0.00000000 -1.00000000
vn 0.00000000 0.00000000 -1.00000000
vn 0.00000000 0.00000000 -1.00000000
vn 0.00000000 0.00000000 -1.00000000
vn 0.00000000 1.00000000 0.00000000
vn 0.00000000 1.00000000 0.00000000
vn 0.00000000 1.00000000 0.00000000
vn 0.00000000 1.00000000 0.00000000
vt 0.62347000 0.09502000
vt 0.62347000 0.03670000
vt 0.18814000 0.03670000
vt 0.18814000 0.09502000
vt 0.98499000 0.00000000
vt 0.63673000 0.00000000
vt 0.63673000 0.05832000
vt 0.98499000 0.05832000
vt 0.99550000 0.06762000
vt 0.64724000 0.06762000
vt 0.64724000 0.50503000
vt 0.99550000 0.50503000
vt 0.94196000 0.98165000
vt 0.94196000 0.63172000
vt 1.00000000 0.63172000
vt 1.00000000 0.98165000
vt 0.63823000 0.17345000
vt 0.63823000 0.52338000
vt 0.20290000 0.52338000
vt 0.20290000 0.17345000
vt 0.45409000 0.10357000
vt 0.45409000 0.16189000
vt 0.01876000 0.16189000
vt 0.01876000 0.10357000
vt 0.93345000 0.52665000
vt 0.87541000 0.52665000
vt 0.87541000 0.96405000
vt 0.93345000 0.96405000
vt 0.02427000 0.19457000
vt 0.08231000 0.19457000
vt 0.08231000 0.54449000
vt 0.02427000 0.54449000
vt 0.35677000 0.53167000
vt 0.70503000 0.53167000
vt 0.70503000 0.96908000
vt 0.35677000 0.96908000
vt 0.15512000 0.20287000
vt 0.15512000 0.55279000
vt 0.09707000 0.55279000
vt 0.09707000 0.20287000
vt 0.00000000 0.56259000
vt 0.34826000 0.56259000
vt 0.34826000 1.00000000
vt 0.00000000 1.00000000
vt 0.76908000 0.55807000
vt 0.82712000 0.55807000
vt 0.82712000 0.99548000
vt 0.76908000 0.99548000
f 1/1/1 2/2/2 3/3/3
f 3/3/3 4/4/4 1/1/1
f 5/5/5 6/6/6 7/7/7
f 7/7/7 8/8/8 5/5/5
f 9/9/9 10/10/10 11/11/11
f 11/11/11 12/12/12 9/9/9
f 13/13/13 14/14/14 15/15/15
f 15/15/15 16/16/16 13/13/13
f 17/17/17 18/18/18 19/19/19
f 19/19/19 20/20/20 17/17/17
f 21/21/21 22/22/22 23/23/23
f 23/23/23 24/24/24 21/21/21
f 25/25/25 26/26/26 27/27/27
f 27/27/27 28/28/28 25/25/25
f 29/29/29 30/30/30 31/31/31
f 31/31/31 32/32/32 29/29/29
f 33/33/33 34/34/34 35/35/35
f 35/35/35 36/36/36 33/33/33
f 37/37/37 38/38/38 39/39/39
f 39/39/39 40/40/40 37/37/37
f 41/41/41 42/42/42 43/43/43
f 43/43/43 44/44/44 41/41/41
f 45/45/45 46/46/46 47/47/47
f 47/47/47 48/48/48 45/45/45

