mtllib material.mtl
usemtl material_0
v 0.07000000 1.35000002 -1.30000007
v 0.07000000 -1.35000002 -1.30000007
v -0.07000000 -1.35000002 -1.30000007
v -0.07000000 1.35000002 -1.30000007
v 0.07000000 -1.35000002 -1.30000007
v 0.07000000 -1.35000002 1.39999998
v -0.07000000 -1.35000002 1.39999998
v -0.07000000 -1.35000002 -1.30000007
v 0.07000000 -1.35000002 1.39999998
v 0.07000000 1.35000002 1.39999998
v -0.07000000 1.35000002 1.39999998
v -0.07000000 -1.35000002 1.39999998
v 0.07000000 1.35000002 1.39999998
v 0.07000000 1.35000002 -1.30000007
v -0.07000000 1.35000002 -1.30000007
v -0.07000000 1.35000002 1.39999998
v -0.07000000 -1.35000002 1.39999998
v -0.07000000 1.35000002 1.39999998
v -0.07000000 0.75000000 0.80000001
v -0.07000000 0.75000000 -0.69999999
v -0.07000000 -0.75000000 0.80000001
v -0.07000000 1.35000002 -1.30000007
v -0.07000000 -1.35000002 -1.30000007
v -0.07000000 -0.75000000 -0.69999999
v 0.07000000 1.35000002 1.39999998
v 0.07000000 -1.35000002 1.39999998
v 0.07000000 -0.75000000 0.80000001
v 0.07000000 -0.75000000 -0.69999999
v 0.07000000 0.75000000 0.80000001
v 0.07000000 -1.35000002 -1.30000007
v 0.07000000 1.35000002 -1.30000007
v 0.07000000 0.75000000 -0.69999999
v 0.07000000 -0.75000000 0.80000001
v 0.07000000 -0.75000000 -0.69999999
v -0.07000000 -0.75000000 -0.69999999
v -0.07000000 -0.75000000 0.80000001
v 0.07000000 -0.75000000 -0.69999999
v 0.07000000 0.75000000 -0.69999999
v -0.07000000 0.75000000 -0.69999999
v -0.07000000 -0.75000000 -0.69999999
v 0.07000000 0.75000000 -0.69999999
v 0.07000000 0.75000000 0.80000001
v -0.07000000 0.75000000 0.80000001
v -0.07000000 0.75000000 -0.69999999
v 0.07000000 0.75000000 0.80000001
v 0.07000000 -0.75000000 0.80000001
v -0.07000000 -0.75000000 0.80000001
v -0.07000000 0.75000000 0.80000001
vn 0.00000000 0.00000000 -1.00000000
vn 0.00000000 0.00000000 -1.00000000
vn 0.00000000 0.00000000 -1.00000000
vn 0.00000000 0.00000000 -1.00000000
vn 0.00000000 -1.00000000 0.00000000
vn 0.00000000 -1.00000000 0.00000000
vn 0.00000000 -1.00000000 0.00000000
vn 0.00000000 -1.00000000 0.00000000
vn 0.00000000 0.00000000 1.00000000
vn 0.00000000 0.00000000 1.00000000
vn 0.00000000 0.00000000 1.00000000
vn 0.00000000 0.00000000 1.00000000
vn 0.00000000 1.00000000 0.00000000
vn 0.00000000 1.00000000 0.00000000
vn 0.00000000 1.00000000 0.00000000
vn 0.00000000 1.00000000 0.00000000
vn -1.00000000 -0.00000000 0.00000000
vn -1.00000000 0.00000000 0.00000000
vn -1.00000000 0.00000000 0.00000000
vn -1.00000000 -0.00000000 0.00000000
vn -1.00000000 -0.00000000 0.00000000
vn -1.00000000 -0.00000000 0.00000000
vn -1.00000000 0.00000000 0.00000000
vn -1.00000000 0.00000000 0.00000000
vn 1.00000000 0.00000000 0.00000000
vn 1.00000000 -0.00000000 0.00000000
vn 1.00000000 -0.00000000 0.00000000
vn 1.00000000 0.00000000 0.00000000
vn 1.00000000 0.00000000 0.00000000
vn 1.00000000 0.00000000 0.00000000
vn 1.00000000 -0.00000000 0.00000000
vn 1.00000000 -0.00000000 0.00000000
vn 0.00000000 1.00000000 0.00000000
vn 0.00000000 1.00000000 0.00000000
vn 0.00000000 1.00000000 0.00000000
vn 0.00000000 1.00000000 0.00000000
vn 0.00000000 0.00000000 1.00000000
vn 0.00000000 0.00000000 1.00000000
vn 0.00000000 0.00000000 1.00000000
vn 0.00000000 0.00000000 1.00000000
vn 0.00000000 -1.00000000 0.00000000
vn 0.00000000 -1.00000000 0.00000000
vn 0.00000000 -1.00000000 0.00000000
vn 0.00000000 -1.00000000 0.00000000
vn 0.00000000 0.00000000 -1.00000000
vn 0.00000000 0.00000000 -1.00000000
vn 0.00000000 0.00000000 -1.00000000
vn 0.00000000 0.00000000 -1.00000000
vt 0.00000000 0.00000000
vt 0.00000000 0.00000000
vt 0.00000000 0.00000000
vt 0.00000000 0.00000000
vt 0.00000000 0.00000000
vt 0.00000000 0.00000000
vt 0.00000000 0.00000000
vt 0.00000000 0.00000000
vt 0.00000000 0.00000000
vt 0.00000000 0.00000000
vt 0.00000000 0.00000000
vt 0.00000000 0.00000000
vt 0.00000000 0.00000000
vt 0.00000000 0.00000000
vt 0.00000000 0.00000000
vt 0.00000000 0.00000000
vt 1.00000000 1.00000000
vt 0.00000000 1.00000000
vt 0.22222000 0.77778000
vt 0.22222000 0.22222000
vt 0.77778000 0.77778000
vt 0.00000000 0.00000000
vt 1.00000000 0.00000000
vt 0.77778000 0.22222000
vt 1.00000000 1.00000000
vt 0.00000000 1.00000000
vt 0.22222000 0.77778000
vt 0.22222000 0.22222000
vt 0.77778000 0.77778000
vt 0.00000000 0.00000000
vt 1.00000000 0.00000000
vt 0.77778000 0.22222000
vt 0.00000000 0.00000000
vt 0.00000000 0.00000000
vt 0.00000000 0.00000000
vt 0.00000000 0.00000000
vt 0.00000000 0.00000000
vt 0.00000000 0.00000000
vt 0.00000000 0.00000000
vt 0.00000000 0.00000000
vt 0.00000000 0.00000000
vt 0.00000000 0.00000000
vt 0.00000000 0.00000000
vt 0.00000000 0.00000000
vt 0.00000000 0.00000000
vt 0.00000000 0.00000000
vt 0.00000000 0.00000000
vt 0.00000000 0.00000000
f 1/1/1 2/2/2 3/3/3
f 3/3/3 4/4/4 1/1/1
f 5/5/5 6/6/6 7/7/7
f 7/7/7 8/8/8 5/5/5
f 9/9/9 10/10/10 11/11/11
f 11/11/11 12/12/12 9/9/9
f 13/13/13 14/14/14 15/15/15
f 15/15/15 16/16/16 13/13/13
f 17/17/17 18/18/18 19/19/19
f 20/20/20 19/19/19 18/18/18
f 19/19/19 21/21/21 17/17/17
f 18/18/18 22/22/22 20/20/20
f 23/23/23 17/17/17 21/21/21
f 24/24/24 20/20/20 22/22/22
f 22/22/22 23/23/23 24/24/24
f 21/21/21 24/24/24 23/23/23
f 25/25/25 26/26/26 27/27/27
f 28/28/28 27/27/27 26/26/26
f 27/27/27 29/29/29 25/25/25
f 26/26/26 30/30/30 28/28/28
f 31/31/31 25/25/25 29/29/29
f 32/32/32 28/28/28 30/30/30
f 30/30/30 31/31/31 32/32/32
f 29/29/29 32/32/32 31/31/31
f 33/33/33 34/34/34 35/35/35
f 35/35/35 36/36/36 33/33/33
f 37/37/37 38/38/38 39/39/39
f 39/39/39 40/40/40 37/37/37
f 41/41/41 42/42/42 43/43/43
f 43/43/43 44/44/44 41/41/41
f 45/45/45 46/46/46 47/47/47
f 47/47/47 48/48/48 45/45/45

